<svg width="51" height="51" viewBox="0 0 51 51" fill="none" xmlns="http://www.w3.org/2000/svg">
<path d="M25.5 8.5C34.8734 8.5 42.5 16.1266 42.5 25.5C42.5 34.8734 34.8734 42.5 25.5 42.5C16.1266 42.5 8.5 34.8734 8.5 25.5C8.5 16.1266 16.1266 8.5 25.5 8.5ZM25.5 4.25C13.7636 4.25 4.25 13.7636 4.25 25.5C4.25 37.2364 13.7636 46.75 25.5 46.75C37.2364 46.75 46.75 37.2364 46.75 25.5C46.75 13.7636 37.2364 4.25 25.5 4.25ZM36.125 23.375H27.625V14.875H23.375V23.375H14.875V27.625H23.375V36.125H27.625V27.625H36.125V23.375Z" fill="black"/>
</svg>
