<svg width="110" height="109" viewBox="0 0 110 109" fill="none" xmlns="http://www.w3.org/2000/svg">
<path d="M109.707 48.7289C109.201 46.5664 108.225 44.5393 106.847 42.789C105.448 41.052 103.684 39.6385 101.677 38.6474C100.094 37.8759 98.3764 37.4134 96.6172 37.285C95.7207 27.7491 91.4552 18.833 84.5728 12.1086C76.7359 4.35496 66.1138 0 55.039 0C43.9643 0 33.3422 4.35496 25.5053 12.1086C18.6229 18.833 14.3573 27.7491 13.4608 37.285C11.7017 37.4134 9.98384 37.8759 8.40106 38.6474C6.38405 39.6231 4.6165 41.0391 3.23128 42.789C1.84296 44.5354 0.865752 46.567 0.370975 48.7354C-0.123802 50.9039 -0.123657 53.1544 0.371402 55.3227L9.00603 90.3627C10.4922 95.7316 13.7214 100.466 18.1947 103.835C22.668 107.203 28.1364 109.019 33.755 109H76.1581C81.7958 109.006 87.2789 107.173 91.7615 103.786C96.2441 100.398 99.4772 95.6427 100.962 90.2537L109.542 55.3227C110.092 53.1648 110.147 50.9087 109.707 48.7289ZM37.6598 83.7144C37.6598 84.7984 37.2252 85.8379 36.4517 86.6044C35.6781 87.3709 34.6289 87.8015 33.535 87.8015C32.441 87.8015 31.3918 87.3709 30.6183 86.6044C29.8447 85.8379 29.4102 84.7984 29.4102 83.7144V62.2435C29.4102 61.1596 29.8447 60.12 30.6183 59.3535C31.3918 58.5871 32.441 58.1565 33.535 58.1565C34.6289 58.1565 35.6781 58.5871 36.4517 59.3535C37.2252 60.12 37.6598 61.1596 37.6598 62.2435V83.7144ZM59.1639 83.7144C59.1639 84.2511 59.0572 84.7826 58.8499 85.2785C58.6426 85.7743 58.3388 86.2249 57.9557 86.6044C57.5727 86.9839 57.118 87.285 56.6175 87.4904C56.1171 87.6958 55.5807 87.8015 55.039 87.8015C54.4974 87.8015 53.961 87.6958 53.4605 87.4904C52.9601 87.285 52.5054 86.9839 52.1224 86.6044C51.7393 86.2249 51.4355 85.7743 51.2282 85.2785C51.0209 84.7826 50.9142 84.2511 50.9142 83.7144V62.2435C50.9142 61.1596 51.3488 60.12 52.1224 59.3535C52.8959 58.5871 53.9451 58.1565 55.039 58.1565C56.133 58.1565 57.1822 58.5871 57.9557 59.3535C58.7293 60.12 59.1639 61.1596 59.1639 62.2435V83.7144ZM80.6679 83.7144C80.6679 84.7984 80.2334 85.8379 79.4598 86.6044C78.6862 87.3709 77.6371 87.8015 76.5431 87.8015C75.4491 87.8015 74.4 87.3709 73.6264 86.6044C72.8529 85.8379 72.4183 84.7984 72.4183 83.7144V62.2435C72.4183 61.1596 72.8529 60.12 73.6264 59.3535C74.4 58.5871 75.4491 58.1565 76.5431 58.1565C77.6371 58.1565 78.6862 58.5871 79.4598 59.3535C80.2334 60.12 80.6679 61.1596 80.6679 62.2435V83.7144ZM21.7655 37.1761C22.67 29.8608 26.0422 23.0629 31.3351 17.885C37.6322 11.6754 46.1549 8.18944 55.039 8.18944C63.9232 8.18944 72.4458 11.6754 78.743 17.885C84.0359 23.0629 87.4081 29.8608 88.3126 37.1761H21.7655Z" fill="#6E697A"/>
</svg>
