<svg width="32" height="32" viewBox="0 0 32 32" fill="none" xmlns="http://www.w3.org/2000/svg">
<path d="M8.00016 25.3333V13.3333C8.00016 11.2116 8.84302 9.17677 10.3433 7.67647C11.8436 6.17618 13.8784 5.33333 16.0002 5.33333C18.1219 5.33333 20.1567 6.17618 21.657 7.67647C23.1573 9.17677 24.0002 11.2116 24.0002 13.3333V25.3333M8.00016 25.3333H24.0002M8.00016 25.3333H5.3335M24.0002 25.3333H26.6668M14.6668 29.3333H17.3335" stroke="black" stroke-width="2.5" stroke-linecap="round" stroke-linejoin="round"/>
<path d="M16.0003 5.33333C16.7367 5.33333 17.3337 4.73638 17.3337 4C17.3337 3.26362 16.7367 2.66666 16.0003 2.66666C15.2639 2.66666 14.667 3.26362 14.667 4C14.667 4.73638 15.2639 5.33333 16.0003 5.33333Z" stroke="black" stroke-width="2.5"/>
</svg>
