<svg width="100" height="100" viewBox="0 0 100 100" fill="none" xmlns="http://www.w3.org/2000/svg">
<rect width="100" height="100" rx="50" fill="white"/>
<g clip-path="url(#clip0_321_277)">
<path d="M80.7056 43.2938L29.5964 72.8016C31.8807 75.0872 33.8806 76.36 33.8806 76.36L48.8538 67.7153L47.4124 65.2187L54.0007 64.7437L83.0113 47.9944C82.3395 46.0632 81.5673 44.521 80.7056 43.2938Z" fill="black"/>
<path d="M61.2709 42.0374C58.8125 42.8875 56.3492 43.0581 54.0341 42.8359C53.9736 43.0607 53.8624 43.274 53.6877 43.4528L48.1959 49.0532C47.6565 49.604 46.7727 49.6128 46.2218 49.0735C45.6713 48.5329 45.663 47.6488 46.2018 47.0982L50.9132 42.2953C49.6391 41.9813 48.4438 41.577 47.359 41.1381L42.2818 46.1105C41.7313 46.6498 40.8476 46.6403 40.3089 46.0906C39.7691 45.5392 39.7783 44.6551 40.3293 44.1157L44.6497 39.8829C42.6392 38.8286 41.4157 37.9028 41.4157 37.9028L18.4884 51.1399C18.4884 51.1399 21.3215 55.3269 23.6587 63.3371C24.5131 66.2686 26.113 68.7969 27.7957 70.8253L78.9235 41.3067C74.5703 37.5952 68.4861 39.5412 61.2709 42.0374Z" fill="black"/>
</g>
<defs>
<clipPath id="clip0_321_277">
<rect width="60" height="60" fill="white" transform="translate(9.01929 39.0192) rotate(-30)"/>
</clipPath>
</defs>
</svg>
