<svg width="77" height="77" viewBox="0 0 77 77" fill="none" xmlns="http://www.w3.org/2000/svg">
<path d="M38.5 38.5C34.9709 38.5 31.9497 37.2434 29.4365 34.7302C26.9233 32.217 25.6667 29.1958 25.6667 25.6667C25.6667 22.1375 26.9233 19.1163 29.4365 16.6031C31.9497 14.0899 34.9709 12.8333 38.5 12.8333C42.0292 12.8333 45.0504 14.0899 47.5636 16.6031C50.0768 19.1163 51.3334 22.1375 51.3334 25.6667C51.3334 29.1958 50.0768 32.217 47.5636 34.7302C45.0504 37.2434 42.0292 38.5 38.5 38.5ZM12.8334 64.1667V55.1833C12.8334 53.3653 13.3018 51.6948 14.2386 50.1719C15.1755 48.649 16.4182 47.4855 17.9667 46.6813C21.282 45.0236 24.6507 43.7809 28.073 42.9532C31.4952 42.1254 34.9709 41.7105 38.5 41.7083C42.0292 41.7062 45.5049 42.1211 48.9271 42.9532C52.3493 43.7852 55.7181 45.0279 59.0334 46.6813C60.5841 47.4833 61.8278 48.6469 62.7647 50.1719C63.7015 51.697 64.1688 53.3674 64.1667 55.1833V64.1667H12.8334Z" fill="white"/>
</svg>
